<svg xmlns="http://www.w3.org/2000/svg" xmlns:xlink="http://www.w3.org/1999/xlink" width="100px" height="100px" viewBox="0 0 100 100"><style>
@keyframes a0_t { 0% { transform: translate(50.5px,83px) scale(1,1) translate(-19.6px,-52px); animation-timing-function: cubic-bezier(0,0,.6,1); } 45.455% { transform: translate(50.5px,83px) scale(1,1) translate(-19.6px,-52px); animation-timing-function: cubic-bezier(.4,0,.6,1); } 100% { transform: translate(50.5px,83px) scale(1,1) translate(-19.6px,-52px); } }
@keyframes a1_t { 0% { transform: translate(44.5px,74.8px); } 9.091% { transform: translate(44.5px,74.8px); } 18.182% { transform: translate(44.5px,73.9px); animation-timing-function: cubic-bezier(0,0,.6,1); } 54.545% { transform: translate(44.4px,67px); } 100% { transform: translate(44.4px,67px); } }
@keyframes a1_o { 0% { opacity: 0; } 9.091% { opacity: 0; } 18.182% { opacity: 1; } 54.545% { opacity: 1; } 63.636% { opacity: 0; } 100% { opacity: 0; } }
@keyframes a3_t { 0% { transform: translate(62.5px,32.1px); } 54.545% { transform: translate(62.5px,32.1px); } 63.636% { transform: translate(62.5px,32.1px); animation-timing-function: cubic-bezier(0,0,.6,1); } 90.909% { transform: translate(62.5px,21.1px); } 100% { transform: translate(62px,20px); } }
@keyframes a2_t { 0% { transform: rotate(0deg) scale(.4,.4) translate(-4.3px,-4.1px); } 63.636% { transform: rotate(0deg) scale(.4,.4) translate(-4.3px,-4.1px); } 90.909% { transform: rotate(-146.5deg) scale(1,1) translate(-4.3px,-4.1px); } 100% { transform: rotate(-212.2deg) scale(1,1) translate(-4.3px,-4.1px); } }
@keyframes a2_o { 0% { opacity: 0; } 54.545% { opacity: 0; } 63.636% { opacity: 1; } 90.909% { opacity: 1; } 100% { opacity: 0; } }
@keyframes a4_t { 0% { transform: translate(66.8px,44px) rotate(0deg) scale(1,1) translate(-3.1px,-3px); } 27.273% { transform: translate(66.8px,44px) rotate(0deg) scale(1,1) translate(-3.1px,-3px); } 36.364% { transform: translate(66.8px,44px) rotate(0deg) scale(1,1) translate(-3.4px,-3.2px); } 81.818% { transform: translate(67px,31px) rotate(146.3deg) scale(1,1) translate(-4.6px,-4.3px); } 90.909% { transform: translate(67px,29px) rotate(206.4deg) scale(1,1) translate(-4.6px,-4.3px); } 100% { transform: translate(67px,29px) rotate(206.4deg) scale(1,1) translate(-4.6px,-4.3px); } }
@keyframes a4_o { 0% { opacity: 0; } 27.273% { opacity: 0; } 36.364% { opacity: 1; } 81.818% { opacity: 1; } 90.909% { opacity: 0; } 100% { opacity: 0; } }
@keyframes a4_w { 0% { width: 6.2px; } 27.273% { width: 6.2px; } 36.364% { width: 5.2px; } 81.818% { width: 6.6px; } 100% { width: 6.6px; } }
@keyframes a4_h { 0% { height: 5.9px; } 27.273% { height: 5.9px; } 36.364% { height: 4.9px; } 81.818% { height: 6.3px; } 100% { height: 6.3px; } }
@keyframes a6_t { 0% { transform: translate(33.9px,38.9px); } 9.091% { transform: translate(33.9px,38.9px); } 18.182% { transform: translate(33.9px,38.9px); animation-timing-function: cubic-bezier(0,0,.6,1); } 54.545% { transform: translate(34px,27px); } 100% { transform: translate(34px,27px); } }
@keyframes a7_t { 0% { transform: rotate(0deg); } 9.091% { transform: rotate(0deg); } 18.182% { transform: rotate(0deg); } 54.545% { transform: rotate(166.2deg); } 72.727% { transform: rotate(199.5deg); } 100% { transform: rotate(199.5deg); } }
@keyframes a5_t { 0% { transform: scale(1,1) translate(-3.1px,-3px); } 9.091% { transform: scale(1,1) translate(-3.1px,-3px); } 18.182% { transform: scale(1,1) translate(-3.1px,-3px); animation-timing-function: cubic-bezier(0,0,.6,1); } 54.545% { transform: scale(1.6,1.6) translate(-3.1px,-3px); } 100% { transform: scale(1.6,1.6) translate(-3.1px,-3px); } }
@keyframes a5_o { 0% { opacity: 0; } 9.091% { opacity: 0; } 18.182% { opacity: 1; } 54.545% { opacity: 1; } 72.727% { opacity: 0; } 100% { opacity: 0; } }
@keyframes a8_t { 0% { transform: translate(43px,27px); animation-timing-function: cubic-bezier(.4,0,.6,1); } 45.455% { transform: translate(43px,29px); animation-timing-function: cubic-bezier(0,0,.6,1); } 100% { transform: translate(43px,27px); } }
@keyframes a9_t { 0% { transform: translate(37.5px,72.3px); animation-timing-function: cubic-bezier(0,0,.4,.4); } 9.091% { transform: translate(37.5px,70.8px); animation-timing-function: cubic-bezier(.2,.4,.7,1); } 63.636% { transform: translate(37.5px,66.3px); } 100% { transform: translate(37.5px,66.3px); } }
@keyframes a9_o { 0% { opacity: 0; } 9.091% { opacity: 1; } 63.636% { opacity: 1; } 72.727% { opacity: 0; } 100% { opacity: 0; } }
@keyframes a10_t { 0% { transform: translate(51.4px,79px) scale(.7,.7) translate(-1.2px,-1.2px); } 18.182% { transform: translate(51.4px,79px) scale(.7,.7) translate(-1.2px,-1.2px); } 27.273% { transform: translate(51.4px,79px) scale(.7,.7) translate(-1.2px,-1.2px); animation-timing-function: cubic-bezier(0,0,.6,1); } 90.909% { transform: translate(51.4px,68px) scale(.7,.7) translate(-1.2px,-1.2px); } 100% { transform: translate(51.4px,68px) scale(.7,.7) translate(-1.2px,-1.2px); } }
@keyframes a10_o { 0% { opacity: 0; } 18.182% { opacity: 0; } 27.273% { opacity: 1; } 63.636% { opacity: 1; } 100% { opacity: 0; } }
@keyframes a11_t { 0% { transform: translate(56.3px,79px) scale(.7,.7) translate(-1.2px,-1.2px); } 9.091% { transform: translate(56.3px,79px) scale(.7,.7) translate(-1.2px,-1.2px); animation-timing-function: cubic-bezier(0,0,.6,1); } 45.455% { transform: translate(56.3px,73px) scale(.7,.7) translate(-1.2px,-1.2px); } 100% { transform: translate(56.3px,73px) scale(.7,.7) translate(-1.2px,-1.2px); } }
@keyframes a11_o { 0% { opacity: 0; } 9.091% { opacity: 1; } 45.455% { opacity: 1; } 54.545% { opacity: 0; } 100% { opacity: 0; } }
@keyframes a12_t { 0% { transform: translate(57.5px,74px); } 27.273% { transform: translate(57.5px,74px); animation-timing-function: cubic-bezier(0,0,.6,1); } 72.727% { transform: translate(57.5px,68px); } 81.818% { transform: translate(57.5px,67px); } 90.909% { transform: translate(57.5px,67px); } 100% { transform: translate(57.5px,67px); } }
@keyframes a12_o { 0% { opacity: 0; } 18.182% { opacity: 0; } 27.273% { opacity: 1; animation-timing-function: cubic-bezier(0,0,.6,1); } 72.727% { opacity: 1; } 81.818% { opacity: 1; } 90.909% { opacity: 0; } 100% { opacity: 0; } }
@keyframes a13_t { 0% { transform: translate(64.5px,72.1px) scale(.7,.7) translate(-1.2px,-1.2px); animation-timing-function: cubic-bezier(0,0,.6,1); } 63.636% { transform: translate(64.5px,66.1px) scale(.7,.7) translate(-1.2px,-1.2px); } 72.727% { transform: translate(64.5px,66.1px) scale(.7,.7) translate(-1.2px,-1.2px); } 100% { transform: translate(64.5px,66.1px) scale(.7,.7) translate(-1.2px,-1.2px); } }
@keyframes a13_o { 0% { opacity: 0; } 63.636% { opacity: 1; } 72.727% { opacity: 0; } 100% { opacity: 0; } }
</style><use width="39.3" height="53" xlink:href="#Bottle-Only" transform="translate(50.5,83) translate(-19.6,-52)" style="animation: 1.1s linear infinite both a0_t;"/><defs><symbol id="Bubble" preserveAspectRatio="none" width="5.6" height="5.7" viewBox="0 0 5.6 5.7" overflow="visible"><path d="M5.6 2.7c0 1.1-0.6 2.1-1.7 2.5c-1 .5-2.1 .2-2.9-0.5c-0.8-0.8-1-2-0.6-3c.4-1 1.4-1.7 2.5-1.7c1.5 0 2.7 1.2 2.7 2.7Z" fill="#a3fbf1"/></symbol><symbol id="Bottle-Only" preserveAspectRatio="none" width="39.3" height="53" viewBox="0 0 39.3 53" overflow="visible"><path d="M39.1 31.9c.2 7.1-3.5 13.8-9.6 17.4c-6.1 3.6-13.6 3.6-19.7 0c-6.1-3.6-9.8-10.3-9.7-17.4c0-10.9 8.8-17.9 19.5-17.9c10.8 0 19.5 7 19.5 17.9Z" fill="#ddf0f1"/><path d="M27.4 15.4c-3.4-1.7 0-6.2 0-6.2c1.7-2.9-17.2-2.9-15.5 0c0 0 3.3 4.5 0 6.2c-3.4 1.7 5.7 2.6 7.7 2.6c2.1 0 11.1-0.9 7.8-2.6Z" fill="#ddf0f1"/><path d="M11.2 8.4c.5 .7 .8 1.4 1.1 2.2c2.2 1 4.5 1.4 6.8 1.4c2.4 0 4.7-0.4 6.8-1.4c.3-0.8 .7-1.5 1.1-2.2c1.7-3.2-17.5-3.2-15.8 0Z" fill="#ddf0f1" style="mix-blend-mode: multiply;"/><path d="M19.6 27c-9.6 0-17.4 2.3-17.5 5.1c0 0 0 0 0 .1c-0.1 6.3 3.2 12.2 8.7 15.4c5.4 3.2 12.2 3.2 17.7 0c5.4-3.2 8.8-9.1 8.6-15.4c0 0 0-0.1 0-0.1c0-2.8-7.8-5.1-17.5-5.1Z" fill="#7be2d6"/><path d="M37.1 32c0 2.8-7.8 5-17.5 5c-9.6 0-17.5-2.2-17.5-5c0-2.7 7.9-5 17.5-5c9.7 0 17.5 2.3 17.5 5Z" fill="#94f1e7"/><path d="M11.8 24.8c-2.9 2.9-6.5 4-8 2.6c-1.5-1.5-0.4-5.2 2.6-8.1c2.9-3 6.5-4.1 8.1-2.6c1.5 1.5 .3 5.1-2.7 8.1Z" fill="#ddf0f1" opacity=".8" style="mix-blend-mode: screen;"/><path d="M6.1 31.5c0 1.4-1.1 2.5-2.5 2.5c-1.3 0-2.5-1.1-2.5-2.5c0-1.3 1.1-2.5 2.5-2.5c.7 0 1.3 .3 1.8 .7c.5 .5 .7 1.1 .7 1.8Z" fill="#ddf0f1" opacity=".8" style="mix-blend-mode: screen;"/><path d="M30.1 5.5c0 3-4.7 5.5-10.5 5.5c-5.8 0-10.5-2.5-10.5-5.5c0-3 4.7-5.5 10.5-5.5c5.9 0 10.5 2.4 10.5 5.5Z" fill="#ddf0f1"/><path d="M19.6 8.8c-4.3 0-7.8-1.6-8.4-3.8c0 .2-0.1 .4-0.1 .6c0 2.4 3.8 4.4 8.5 4.4c4.7 0 8.5-2 8.5-4.4c0-0.2 0-0.4 0-0.6c-0.6 2.2-4.2 3.8-8.5 3.8Z" fill="#ddf0f1" style="mix-blend-mode: screen;"/><path d="M21.4 14c6.4 2.7 10.5 9.1 10.4 16.2c0 5.3-2 10.3-5.7 14.1c-3.7 3.7-8.7 5.9-13.9 5.9c-0.4 0-0.7 0-1.1-0.1c6.1 2.9 13.2 2.5 18.9-1.2c5.7-3.7 9.1-10 9.1-16.8c0-10.4-7.8-17.3-17.7-18.1Z" fill="#ddf0f1" opacity=".2" style="mix-blend-mode: screen;"/></symbol><symbol id="Star" preserveAspectRatio="none" width="8.6" height="8.1" viewBox="0 0 8.6 8.1" overflow="visible"><path d="M34 8l-0.4-2.9l2-1.9l-2.9-0.5l-1.2-2.5l-1.3 2.6l-2.8 .4l2.1 2l-0.5 2.8l2.5-1.3l2.5 1.3Z" stroke="#fbe02f" stroke-width=".2" fill="url(#Gradient-0)" fill-rule="evenodd" transform="translate(-27.2,0)"/></symbol><symbol id="Bottle-Lid" preserveAspectRatio="none" width="14.1" height="12" viewBox="0 0 14.1 12" overflow="visible"><g><path d="M13.8 9c0 0 0 0 .1-0.1c0-0.1 0-0.1 0-0.2c0 0 0 0 0 0c.1-1.6 .1-3.2 0-4.8c-0.1-1.7-2.7-0.7-4.7 .9c-0.7-0.1-1.5-0.2-2.2-0.2c-0.8 0-1.5 .1-2.2 .2c-2-1.7-4.6-2.6-4.7-0.9c-0.1 1.4-0.1 2.9 0 4.4c0 .2 0 .4 .1 .6c0 0 0 0 0 0c0 0 0 0 0 0c.5 1.8 3.4 3.1 6.8 3.1c3.2 0 5.9-1.2 6.7-2.8c0 0 0 0 0 0c0-0.1 .1-0.1 .1-0.2Z" fill="#da9328"/><path d="M14 4c0 2.2-3.1 4-7 4c-3.8 0-7-1.8-7-4c0-2.2 3.2-4 7-4c3.9 0 7 1.8 7 4Z" fill="#faac2d"/></g></symbol><linearGradient id="Gradient-0" x1=".5" y1="0" x2=".5" y2="1"><stop offset="0" stop-color="#fffb35"/><stop offset="1" stop-color="#fad72d"/></linearGradient></defs><title>LS/Graphic/100px/Potion</title><desc>Created with Sketch.</desc><use width="5.6" height="5.7" xlink:href="#Bubble" opacity="0" transform="translate(47.3,77.7) translate(-2.8,-2.8)" style="animation: 1.1s linear infinite both a1_t, 1.1s linear infinite both a1_o;"/><g style="animation: 1.1s linear infinite both a3_t;"><use width="8.6" height="8.1" xlink:href="#Star" opacity="0" transform="translate(62.5,32.1) scale(.394,.394) translate(-4.3,-4.1)" style="animation: 1.1s linear infinite both a2_t, 1.1s linear infinite both a2_o;"/></g><use width="6.2" height="5.9" xlink:href="#Star" opacity="0" transform="translate(66.8,44) translate(-3.1,-3)" style="animation: 1.1s linear infinite both a4_t, 1.1s linear infinite both a4_o, 1.1s linear infinite both a4_w, 1.1s linear infinite both a4_h;"/><g style="animation: 1.1s linear infinite both a6_t;"><g style="animation: 1.1s linear infinite both a7_t;"><use width="6.2" height="5.9" xlink:href="#Star" opacity="0" transform="translate(33.9,38.9) translate(-3.1,-3)" style="animation: 1.1s linear infinite both a5_t, 1.1s linear infinite both a5_o;"/></g></g><use width="14.1" height="12" xlink:href="#Bottle-Lid" transform="translate(50,33) translate(-7,-6)" style="animation: 1.1s linear infinite both a8_t;"/><use width="3.3" height="3.3" xlink:href="#Bubble" opacity="0" transform="translate(39.2,74) translate(-1.6,-1.7)" style="animation: 1.1s linear infinite both a9_t, 1.1s linear infinite both a9_o;"/><use width="2.4" height="2.4" xlink:href="#Bubble" opacity="0" transform="translate(51.4,79) scale(.7,.7) translate(-1.2,-1.2)" style="animation: 1.1s linear infinite both a10_t, 1.1s linear infinite both a10_o;"/><use width="2.4" height="2.4" xlink:href="#Bubble" opacity="0" transform="translate(56.3,79) scale(.7,.7) translate(-1.2,-1.2)" style="animation: 1.1s linear infinite both a11_t, 1.1s linear infinite both a11_o;"/><use width="3.6" height="3.7" xlink:href="#Bubble" opacity="0" transform="translate(59.4,75.8) translate(-1.8,-1.8)" style="animation: 1.1s linear infinite both a12_t, 1.1s linear infinite both a12_o;"/><use width="2.4" height="2.4" xlink:href="#Bubble" opacity="0" transform="translate(64.5,72.1) scale(.7,.7) translate(-1.2,-1.2)" style="animation: 1.1s linear infinite both a13_t, 1.1s linear infinite both a13_o;"/></svg>