<?xml version="1.0" encoding="UTF-8" standalone="no"?>
<!-- Created with Keyshape -->
<svg xmlns="http://www.w3.org/2000/svg" xmlns:xlink="http://www.w3.org/1999/xlink" id="Layer_1" x="0px" y="0px" viewBox="0 0 512 512" style="white-space: preserve-spaces;">
    <style>
@keyframes Bottom-Tick_t { 0% { transform: translate(168.821px,381.291px) scale(1,1) translate(-29.345px,-29.345px); } 10% { transform: translate(168.821px,381.291px) scale(1,1) translate(-29.345px,-29.345px); } 12% { transform: translate(168.821px,381.291px) scale(1.3,1.3) translate(-29.345px,-29.345px); } 14% { transform: translate(168.821px,381.291px) scale(1,1) translate(-29.345px,-29.345px); } 100% { transform: translate(168.821px,381.291px) scale(1,1.000334) translate(-29.345px,-29.345px); } }
@keyframes tick_t { 0% { transform: translate(29.342164px,29.342px) scale(0,0) translate(-168.818164px,-186.601638px); } 10% { transform: translate(29.342164px,29.342px) scale(0,0) translate(-168.818164px,-186.601638px); } 12% { transform: translate(28.629321px,27.215944px) scale(0,0) translate(-168.818164px,-186.601638px); } 13% { transform: translate(28.2729px,26.152915px) scale(0.6,0.6) translate(-168.818164px,-186.601638px); } 14% { transform: translate(29.345px,29.345px) scale(1.2,1.2) translate(-168.818164px,-186.601638px); } 15% { transform: translate(29.345px,29.345px) scale(1,1) translate(-168.818164px,-186.601638px); } 88% { transform: translate(29.345px,29.345px) scale(1,0.999375) translate(-168.818164px,-186.601638px); } 89% { transform: translate(29.345px,29.345px) scale(0,0) translate(-168.818164px,-186.601638px); } 100% { transform: translate(29.345px,29.345px) scale(0,0) translate(-168.818164px,-186.601638px); } }
@keyframes Middle-tick_t { 0% { transform: translate(168.821px,283.9455px) scale(1,1) translate(-29.345px,-29.345px); } 5% { transform: translate(168.821px,283.9455px) scale(1,1) translate(-29.345px,-29.345px); } 7% { transform: translate(168.821px,283.9455px) scale(1.3,1.3) translate(-29.345px,-29.345px); } 9% { transform: translate(168.821px,283.9455px) scale(1,1) translate(-29.345px,-29.345px); } 100% { transform: translate(168.821px,283.9455px) scale(1,1.000334) translate(-29.345px,-29.345px); } }
@keyframes tick-2_t { 0% { transform: translate(29.3422px,29.342px) scale(0,0) translate(-168.818px,-186.602px); } 5% { transform: translate(29.3422px,29.342px) scale(0,0) translate(-168.818px,-186.602px); } 7% { transform: translate(28.629333px,27.215933px) scale(0,0) translate(-168.818px,-186.602px); } 8% { transform: translate(28.2729px,26.1529px) scale(0.6,0.6) translate(-168.818px,-186.602px); } 9% { transform: translate(29.345px,29.345px) scale(1.2,1.2) translate(-168.818px,-186.602px); } 10% { transform: translate(29.345px,29.345px) scale(1,1) translate(-168.818px,-186.602px); } 88% { transform: translate(29.345px,29.345px) scale(1,0.999375) translate(-168.818px,-186.602px); } 89% { transform: translate(29.345px,29.345px) scale(0,0) translate(-168.818px,-186.602px); } 100% { transform: translate(29.345px,29.345px) scale(0,0) translate(-168.818px,-186.602px); } }
@keyframes Top-tick_t { 0% { transform: translate(168.821px,188.602px) scale(1,1) translate(-29.345px,-29.345px); } 2% { transform: translate(168.821px,188.602px) scale(1.3,1.3) translate(-29.345px,-29.345px); } 4% { transform: translate(168.821px,188.602px) scale(1,1) translate(-29.345px,-29.345px); } 100% { transform: translate(168.821px,188.602px) scale(1,1.000334) translate(-29.345px,-29.345px); } }
@keyframes tick-3_t { 0% { transform: translate(29.3422px,29.342px) scale(0,0) translate(-168.818px,-186.602px); } 2% { transform: translate(28.629333px,27.215933px) scale(0,0) translate(-168.818px,-186.602px); } 3% { transform: translate(28.2729px,26.1529px) scale(0.6,0.6) translate(-168.818px,-186.602px); } 4% { transform: translate(29.345px,29.345px) scale(1.2,1.2) translate(-168.818px,-186.602px); } 43% { transform: translate(29.345px,29.345px) scale(1,1) translate(-168.818px,-186.602px); } 88% { transform: translate(29.345px,29.345px) scale(1,0.999375) translate(-168.818px,-186.602px); } 89% { transform: translate(29.345px,29.345px) scale(0,0) translate(-168.818px,-186.602px); } 100% { transform: translate(29.345px,29.345px) scale(0,0) translate(-168.818px,-186.602px); } }
    </style>
    <path d="M256.001,0C397.385,0,512,114.615,512,256.001C512,397.385,397.385,512,256.001,512C114.617,512,0,397.385,0,256.001C0,114.617,114.615,0,256.001,0Z" fill="#dbb058"/>
    <path d="M99.889,96.961L412.112,96.961L412.112,458.885C368.903,492.183,314.769,512,256.001,512C197.231,512,143.099,492.185,99.891,458.887L99.891,96.963L99.889,96.961Z" fill="#FF5B61"/>
    <path d="M124.548,109.998L387.45,109.998L387.45,475.702C349.024,498.742,304.06,512,255.999,512C207.935,512,162.974,498.742,124.548,475.706L124.548,110L124.548,109.998Z" fill="#FFFFFF"/>
    <path d="M250.271,47.19L261.73,47.19C268.819,47.19,274.62,52.989,274.62,60.082L274.62,89.803L237.38,89.803L237.38,60.082C237.379,52.991,243.182,47.19,250.271,47.19ZM255.999,54.755L255.999,54.755C250.31,54.755,245.705,59.363,245.705,65.052C245.705,70.738,250.311,75.346,255.999,75.346C261.688,75.346,266.293,70.738,266.293,65.052C266.293,59.363,261.687,54.755,255.999,54.755Z" fill="#15BDB1"/>
    <path d="M206.169,83.136L305.833,83.136C311.51,83.136,316.154,87.779,316.154,93.459L316.154,122.023L195.848,122.023L195.848,93.459C195.848,87.78,200.492,83.136,206.169,83.136Z" fill="#20D0C2"/>
    <g>
        <path d="M218.622,164.041L365.068,164.041L365.068,171.917L218.622,171.917L218.622,164.041ZM218.622,201.281L218.622,201.281L322.1,201.281L322.1,209.157L218.622,209.157L218.622,201.281ZM218.622,182.661L218.622,182.661L365.068,182.661L365.068,190.537L218.622,190.537L218.622,182.661Z" fill="#D0D1D4"/>
        <path d="M218.622,261.388L365.068,261.388L365.068,269.264L218.622,269.264L218.622,261.388ZM218.622,298.628L218.622,298.628L322.1,298.628L322.1,306.506L218.622,306.506L218.622,298.628ZM218.622,280.01L218.622,280.01L365.068,280.01L365.068,287.886L218.622,287.886L218.622,280.01Z" fill="#D0D1D4"/>
        <path d="M218.622,358.732L365.068,358.732L365.068,366.608L218.622,366.608L218.622,358.732ZM218.622,395.972L218.622,395.972L322.1,395.972L322.1,403.85L218.622,403.85L218.622,395.972ZM218.622,377.352L218.622,377.352L365.068,377.352L365.068,385.23L218.622,385.23L218.622,377.352Z" fill="#D0D1D4"/>
    </g>
    <path d="M435.117,291.389L460.041,291.389L460.041,59.006L435.117,59.006L435.117,291.389Z" fill="#20D0C2"/>
    <g>
        <path d="M447.592,340.89L460.038,291.389L435.119,291.389L447.592,340.89Z" fill="#0E7886"/>
        <path d="M440.232,36.332L454.925,36.332C458.964,36.332,462.269,40.226,462.269,44.982L462.269,153.013L432.885,153.013L432.885,44.981C432.885,40.223,436.191,36.332,440.232,36.332Z" fill="#0E7886"/>
    </g>
    <path d="M447.083,344.466L448.119,344.466L452.262,322.331L442.971,322.331L447.083,344.466Z" fill="#FFFFFF"/>
    <g>
        <path d="M432.896,54.974L468.804,55.252L471.064,55.267L471.064,57.911L471.064,138.377L471.064,139.199L470.645,139.9L467.243,145.628C465.497,148.289,461.861,146.248,463.539,142.579L466.527,137.552L466.527,60.554L432.879,60.296L432.899,54.973L432.896,54.973Z" fill="#20D0C2"/>
        <g id="Bottom-Tick" transform="translate(168.821,381.291) translate(-29.345,-29.345)" style="animation: Bottom-Tick_t 10s linear infinite both;">
            <path id="tick" d="M152.093,187.073C151.359,186.2,151.471,184.897,152.347,184.163C153.218,183.429,154.523,183.541,155.257,184.414L162.579,193.123L182.595,175.577C183.455,174.825,184.762,174.911,185.516,175.773C186.268,176.633,186.182,177.94,185.32,178.692L163.719,197.629L163.717,197.625L163.686,197.654C162.813,198.388,161.51,198.274,160.776,197.403L152.096,187.075L152.093,187.073Z" fill="#20D0C2" transform="translate(29.3422,29.342) scale(0,0) translate(-168.818,-186.602)" style="animation: tick_t 10s linear infinite both;"/>
            <path id="circle" d="M168.819,157.257C176.924,157.257,184.257,160.542,189.569,165.852C194.878,171.163,198.166,178.499,198.166,186.602C198.166,194.703,194.879,202.04,189.569,207.352C184.26,212.661,176.924,215.947,168.819,215.947C160.718,215.947,153.381,212.662,148.071,207.352C142.762,202.043,139.476,194.705,139.476,186.602C139.476,178.497,142.761,171.164,148.071,165.852C153.381,160.542,160.718,157.257,168.819,157.257ZM186.808,168.614L186.808,168.614C182.204,164.012,175.843,161.164,168.819,161.164C161.794,161.164,155.436,164.013,150.832,168.614C146.228,173.218,143.382,179.579,143.382,186.603C143.382,193.625,146.228,199.986,150.832,204.59C155.436,209.194,161.797,212.04,168.819,212.04C175.844,212.04,182.205,209.194,186.808,204.59C191.41,199.986,194.258,193.625,194.258,186.603C194.259,179.579,191.41,173.218,186.808,168.614Z" fill="#20D0C2" transform="translate(-139.476,-157.257)"/>
        </g>
        <g id="Middle-tick" transform="translate(168.821,283.945) translate(-29.345,-29.345)" style="animation: Middle-tick_t 10s linear infinite both;">
            <path id="tick-2" d="M152.093,187.073C151.359,186.2,151.471,184.897,152.347,184.163C153.218,183.429,154.523,183.541,155.257,184.414L162.579,193.123L182.595,175.577C183.455,174.825,184.762,174.911,185.516,175.773C186.268,176.633,186.182,177.94,185.32,178.692L163.719,197.629L163.717,197.625L163.686,197.654C162.813,198.388,161.51,198.274,160.776,197.403L152.096,187.075L152.093,187.073Z" fill="#20D0C2" transform="translate(29.3422,29.342) scale(0,0) translate(-168.818,-186.602)" style="animation: tick-2_t 10s linear infinite both;"/>
            <path id="circle-2" d="M168.819,157.257C176.924,157.257,184.257,160.542,189.569,165.852C194.878,171.163,198.166,178.499,198.166,186.602C198.166,194.703,194.879,202.04,189.569,207.352C184.26,212.661,176.924,215.947,168.819,215.947C160.718,215.947,153.381,212.662,148.071,207.352C142.762,202.043,139.476,194.705,139.476,186.602C139.476,178.497,142.761,171.164,148.071,165.852C153.381,160.542,160.718,157.257,168.819,157.257ZM186.808,168.614L186.808,168.614C182.204,164.012,175.843,161.164,168.819,161.164C161.794,161.164,155.436,164.013,150.832,168.614C146.228,173.218,143.382,179.579,143.382,186.603C143.382,193.625,146.228,199.986,150.832,204.59C155.436,209.194,161.797,212.04,168.819,212.04C175.844,212.04,182.205,209.194,186.808,204.59C191.41,199.986,194.258,193.625,194.258,186.603C194.259,179.579,191.41,173.218,186.808,168.614Z" fill="#20D0C2" transform="translate(-139.476,-157.257)"/>
        </g>
        <g id="Top-tick" transform="translate(168.821,188.602) translate(-29.345,-29.345)" style="animation: Top-tick_t 10s linear infinite both;">
            <path id="tick-3" d="M152.093,187.073C151.359,186.2,151.471,184.897,152.347,184.163C153.218,183.429,154.523,183.541,155.257,184.414L162.579,193.123L182.595,175.577C183.455,174.825,184.762,174.911,185.516,175.773C186.268,176.633,186.182,177.94,185.32,178.692L163.719,197.629L163.717,197.625L163.686,197.654C162.813,198.388,161.51,198.274,160.776,197.403L152.096,187.075L152.093,187.073Z" fill="#20D0C2" transform="translate(29.3422,29.342) scale(0,0) translate(-168.818,-186.602)" style="animation: tick-3_t 10s linear infinite both;"/>
            <path id="circle-3" d="M168.819,157.257C176.924,157.257,184.257,160.542,189.569,165.852C194.878,171.163,198.166,178.499,198.166,186.602C198.166,194.703,194.879,202.04,189.569,207.352C184.26,212.661,176.924,215.947,168.819,215.947C160.718,215.947,153.381,212.662,148.071,207.352C142.762,202.043,139.476,194.705,139.476,186.602C139.476,178.497,142.761,171.164,148.071,165.852C153.381,160.542,160.718,157.257,168.819,157.257ZM186.808,168.614L186.808,168.614C182.204,164.012,175.843,161.164,168.819,161.164C161.794,161.164,155.436,164.013,150.832,168.614C146.228,173.218,143.382,179.579,143.382,186.603C143.382,193.625,146.228,199.986,150.832,204.59C155.436,209.194,161.797,212.04,168.819,212.04C175.844,212.04,182.205,209.194,186.808,204.59C191.41,199.986,194.258,193.625,194.258,186.603C194.259,179.579,191.41,173.218,186.808,168.614Z" fill="#20D0C2" transform="translate(-139.476,-157.257)"/>
        </g>
    </g>
    <g/>
    <g/>
    <g/>
    <g/>
    <g/>
    <g/>
    <g/>
    <g/>
    <g/>
    <g/>
    <g/>
    <g/>
    <g/>
    <g/>
    <g/>
</svg>
