<?xml version="1.0" encoding="UTF-8" standalone="no"?>
<!-- Created with Keyshape -->
<svg xmlns="http://www.w3.org/2000/svg" xmlns:xlink="http://www.w3.org/1999/xlink" width="79px" height="75px" viewBox="0 0 79 75">
    <style>
@keyframes Patient-details_t { 0% { transform: translate(13px,39.36993px); } 10% { transform: translate(13px,0px); } 87% { transform: translate(13px,-0.234459px); } 90% { transform: translate(13px,41.068411px); } 100% { transform: translate(13px,40px); } }
    </style>
    <title>Medical history</title>
    <desc>Created with Sketch.</desc>
    <defs>
        <rect id="path-1" width="81" height="81" rx="40.5"/>
        <mask id="mask-2" fill="white">
            <use xlink:href="#path-1"/>
        </mask>
    </defs>
    <g id="Page-1" stroke="none" stroke-width="1" fill="none" fill-rule="evenodd">
        <g id="Mobile---Phone--Home---Screen-1" transform="translate(-215,-499)">
            <g id="Medical-history" transform="translate(215,493)">
                <g id="Mask"/>
                <g id="131-medical-history" mask="url(#mask-2)">
                    <g id="Path" transform="translate(0,6)">
                        <path d="M16.8917,25.2545L15.7852,23.249C15.0233,21.8682,13.4958,21,11.8281,21L3.1383,21C1.4051,21,0,22.3079,0,23.9213L0,74.296L72,77L72,31.0456C72,29.0235,70.2389,27.3843,68.0666,27.3843L20.6389,27.3843C19.0599,27.3843,17.6133,26.562,16.8917,25.2545Z" fill="#38648C"/>
                        <path d="M68,50.522C48.584,54.6651,9.69466,51.7047,0,50L0,74.3516L68,77L68,50.522Z" fill="#000000" opacity="0.1"/>
                        <g id="Patient-details" transform="translate(39.5,62.8699) translate(-26.5,-23.5)" style="animation: Patient-details_t 10s linear infinite both;">
                            <g id="Paper" transform="translate(26.5,23.5) translate(-26.5,-23.5)">
                                <path d="M66,47L13,47L13,2.99311C13,1.34013,14.6831,0,16.7594,0L62.2406,0C64.3168,0,66,1.33998,66,2.99311L66,47Z" fill="#E8E9EA" transform="translate(-13,0)"/>
                                <path d="M21.2585,0L15.979,0C14.3338,0,13,1.33998,13,2.99311L13,47L46,47C26.2537,41.3417,18.5965,13.3823,21.2585,0Z" fill="#000000" opacity="0.1" transform="translate(-13,0)"/>
                            </g>
                            <g id="Boxes" transform="translate(10.8979,20.4683) translate(-5.89792,-12.4683)">
                                <path id="Shape" d="M28.7236,25.3192L19.0724,25.3192C18.4802,25.3192,18,24.8585,18,24.2902L18,15.0291C18,14.4608,18.4802,14,19.0724,14L28.7234,14C29.3157,14,29.7958,14.4608,29.7958,15.0291L29.7958,24.2902C29.7958,24.8583,29.3158,25.3192,28.7236,25.3192ZM20.1448,23.2611L27.6512,23.2611L27.6512,16.058L20.1448,16.058L20.1448,23.2611Z" fill="#474F70" fill-rule="nonzero" transform="translate(-18,-14)"/>
                                <path id="Shape-2" d="M28.7236,38.9365L19.0724,38.9365C18.4802,38.9365,18,38.4758,18,37.9074L18,28.6464C18,28.078,18.4802,27.6173,19.0724,27.6173L28.7234,27.6173C29.3157,27.6173,29.7958,28.078,29.7958,28.6464L29.7958,37.9074C29.7958,38.4759,29.3158,38.9365,28.7236,38.9365ZM20.1448,36.8785L27.6512,36.8785L27.6512,29.6755L20.1448,29.6755L20.1448,36.8785Z" fill="#474F70" fill-rule="nonzero" transform="translate(-18,-14)"/>
                            </g>
                            <g id="Entry-lines" fill="#474F70" transform="translate(20,14)">
                                <path id="Path-2" d="M27.3835,3.35186L1.70322,3.35186C0.838558,3.35186,0.137521,2.66103,0.137521,1.80862L0.137521,1.64118C0.137521,0.78892,0.838405,0.0979381,1.70322,0.0979381L27.3835,0.0979381C28.2481,0.0979381,28.9492,0.78877,28.9492,1.64118L28.9492,1.80862C28.9492,2.66088,28.2481,3.35186,27.3835,3.35186Z"/>
                                <path id="Path-3" d="M27.3835,16.8729L1.70322,16.8729C0.838558,16.8729,0.137521,16.182,0.137521,15.3296L0.137521,15.1622C0.137521,14.3099,0.838405,13.619,1.70322,13.619L27.3835,13.619C28.2481,13.619,28.9492,14.3098,28.9492,15.1622L28.9492,15.3296C28.9492,16.182,28.2481,16.8729,27.3835,16.8729Z"/>
                            </g>
                            <g id="Check-mark" fill="#FF4F6F" transform="translate(8,25)">
                                <path id="Path-4" d="M4.01263,4.93203C3.78382,4.93203,3.55526,4.8423,3.38079,4.66324L0.390526,1.59216C0.0414474,1.23365,0.0414474,0.652568,0.390526,0.294189C0.739474,-0.0641892,1.30539,-0.0641892,1.65434,0.294189L4.64461,3.36527C4.99368,3.72378,4.99368,4.30486,4.64461,4.66324C4.47,4.8423,4.24118,4.93203,4.01263,4.93203Z"/>
                                <path id="Path-5" d="M1.02224,4.93203C0.793421,4.93203,0.564868,4.8423,0.390395,4.66324C0.0413158,4.30473,0.0413158,3.72365,0.390395,3.36527L3.38066,0.294189C3.72961,-0.0641892,4.29553,-0.0641892,4.64447,0.294189C4.99355,0.652703,4.99355,1.23378,4.64447,1.59216L1.65421,4.66324C1.47974,4.8423,1.25092,4.93203,1.02224,4.93203Z"/>
                            </g>
                        </g>
                        <path d="M67.3471,78L2.80267,78C0.963607,78,-0.376462,76.2551,0.0952239,74.475L8.94538,41.0856C9.27126,39.8561,10.3825,39,11.6528,39L76.1974,39C78.0364,39,79.3767,40.7449,78.9047,42.525L70.0545,75.9144C69.7286,77.1439,68.6174,78,67.3471,78Z" fill="#76B7EB"/>
                        <path d="M16.4941,39L11.5798,39C10.3176,39,9.21335,39.8561,8.88936,41.0856L0.0946814,74.475C-0.374201,76.2551,0.957467,78,2.78516,78L43,78C15.0784,72.0765,9.87481,48.0935,16.4941,39Z" fill="#000000" opacity="0.1"/>
                    </g>
                </g>
                <g id="Red-cross" transform="translate(42,63) translate(-11,-11)">
                    <ellipse id="Oval" fill="#FFFFFF" rx="11" ry="11" transform="translate(-31,-52) translate(42,63)"/>
                    <g id="Group" fill="#F28B74" transform="translate(4,4)">
                        <path id="Path-6" d="M9.5042,3.93436L9.5042,0.713851C9.5042,0.418252,9.26167,0.178634,8.96248,0.178634L5.66296,0.178634C5.36376,0.178634,5.12123,0.418252,5.12123,0.713851L5.12123,3.93436C5.12123,4.169,4.9288,4.35912,4.69131,4.35912L1.43165,4.35912C1.13246,4.35912,0.889925,4.59874,0.889925,4.89434L0.889925,8.15423C0.889925,8.44983,1.13246,8.68944,1.43165,8.68944L4.69131,8.68944C4.9288,8.68944,5.12123,8.87957,5.12123,9.11421L5.12123,12.3347C5.12123,12.6303,5.36376,12.8699,5.66296,12.8699L8.96232,12.8699C9.26152,12.8699,9.50405,12.6303,9.50405,12.3347L9.50405,9.11421C9.50405,8.87957,9.69648,8.68944,9.93398,8.68944L13.1938,8.68944C13.493,8.68944,13.7355,8.44983,13.7355,8.15423L13.7355,4.89434C13.7355,4.59874,13.493,4.35912,13.1938,4.35912L9.93398,4.35912C9.69679,4.35912,9.5042,4.169,9.5042,3.93436Z"/>
                    </g>
                </g>
            </g>
        </g>
    </g>
</svg>
